{
	"asset":{
		"generator":"Khronos glTF Blender I/O v4.1.63",
		"version":"2.0"
	},
	"scene":0,
	"scenes":[
		{
			"name":"Scene",
			"nodes":[
				0,
				1
			]
		}
	],
	"nodes":[
		{
			"mesh":0,
			"name":"\u5186\u67f1",
			"rotation":[
				-0.0007343021570704877,
				-0.11784146726131439,
				0.19099992513656616,
				0.9744905829429626
			],
			"scale":[
				0.21934908628463745,
				0.1098778173327446,
				0.21934905648231506
			],
			"translation":[
				-0.1906547099351883,
				0.6790896654129028,
				-0.0007723416201770306
			]
		},
		{
			"mesh":1,
			"name":"Pipe_straight_LOD_close_2.001",
			"rotation":[
				0.6835017800331116,
				-0.39644911885261536,
				-0.3510454297065735,
				0.5024148225784302
			],
			"scale":[
				0.047018762677907944,
				0.010299703106284142,
				0.00930372066795826
			],
			"translation":[
				-0.22070129215717316,
				0.7591027021408081,
				-0.003548972774296999
			]
		}
	],
	"materials":[
		{
			"doubleSided":true,
			"name":"\u30de\u30c6\u30ea\u30a2\u30eb",
			"pbrMetallicRoughness":{
				"baseColorFactor":[
					0.024632960557937622,
					0.024632960557937622,
					0.024632960557937622,
					1
				],
				"metallicFactor":0,
				"roughnessFactor":0.5
			}
		},
		{
			"doubleSided":true,
			"name":"\u30de\u30c6\u30ea\u30a2\u30eb.001",
			"pbrMetallicRoughness":{
				"baseColorFactor":[
					0.7829185724258423,
					0.7829185724258423,
					0.7829185724258423,
					1
				],
				"metallicFactor":0,
				"roughnessFactor":0.5
			}
		}
	],
	"meshes":[
		{
			"name":"\u5186\u67f1",
			"primitives":[
				{
					"attributes":{
						"POSITION":0,
						"NORMAL":1,
						"TEXCOORD_0":2
					},
					"indices":3,
					"material":0
				}
			]
		},
		{
			"name":"Cylinder.002",
			"primitives":[
				{
					"attributes":{
						"POSITION":4,
						"NORMAL":5,
						"TEXCOORD_0":6
					},
					"indices":7,
					"material":1
				}
			]
		}
	],
	"accessors":[
		{
			"bufferView":0,
			"componentType":5126,
			"count":655,
			"max":[
				3.2998316287994385,
				1,
				3.4869556427001953
			],
			"min":[
				-3.852275848388672,
				-13.69219970703125,
				-3.6696553230285645
			],
			"type":"VEC3"
		},
		{
			"bufferView":1,
			"componentType":5126,
			"count":655,
			"type":"VEC3"
		},
		{
			"bufferView":2,
			"componentType":5126,
			"count":655,
			"type":"VEC2"
		},
		{
			"bufferView":3,
			"componentType":5123,
			"count":3072,
			"type":"SCALAR"
		},
		{
			"bufferView":4,
			"componentType":5126,
			"count":1012,
			"max":[
				1.000000238418579,
				1.000000238418579,
				15.931170463562012
			],
			"min":[
				-7.009786605834961,
				-1.000000238418579,
				-1.0117988586425781
			],
			"type":"VEC3"
		},
		{
			"bufferView":5,
			"componentType":5126,
			"count":1012,
			"type":"VEC3"
		},
		{
			"bufferView":6,
			"componentType":5126,
			"count":1012,
			"type":"VEC2"
		},
		{
			"bufferView":7,
			"componentType":5123,
			"count":3024,
			"type":"SCALAR"
		}
	],
	"bufferViews":[
		{
			"buffer":0,
			"byteLength":7860,
			"byteOffset":0,
			"target":34962
		},
		{
			"buffer":0,
			"byteLength":7860,
			"byteOffset":7860,
			"target":34962
		},
		{
			"buffer":0,
			"byteLength":5240,
			"byteOffset":15720,
			"target":34962
		},
		{
			"buffer":0,
			"byteLength":6144,
			"byteOffset":20960,
			"target":34963
		},
		{
			"buffer":0,
			"byteLength":12144,
			"byteOffset":27104,
			"target":34962
		},
		{
			"buffer":0,
			"byteLength":12144,
			"byteOffset":39248,
			"target":34962
		},
		{
			"buffer":0,
			"byteLength":8096,
			"byteOffset":51392,
			"target":34962
		},
		{
			"buffer":0,
			"byteLength":6048,
			"byteOffset":59488,
			"target":34963
		}
	],
	"buffers":[
		{
			"byteLength":65536,
			"uri":"bomb.bin"
		}
	]
}
