{
	"asset":{
		"generator":"Khronos glTF Blender I/O v4.1.63",
		"version":"2.0"
	},
	"scene":0,
	"scenes":[
		{
			"name":"Scene",
			"nodes":[
				0
			]
		}
	],
	"nodes":[
		{
			"mesh":0,
			"name":"Club_Model"
		}
	],
	"materials":[
		{
			"name":"Material",
			"pbrMetallicRoughness":{
				"baseColorTexture":{
					"index":0
				},
				"metallicFactor":0
			}
		}
	],
	"meshes":[
		{
			"name":"Cylinder.081",
			"primitives":[
				{
					"attributes":{
						"POSITION":0,
						"NORMAL":1,
						"TEXCOORD_0":2
					},
					"indices":3,
					"material":0
				}
			]
		}
	],
	"textures":[
		{
			"sampler":0,
			"source":0
		}
	],
	"images":[
		{
			"mimeType":"image/png",
			"name":"Club_Basecolor",
			"uri":"Club_Basecolor.png"
		}
	],
	"accessors":[
		{
			"bufferView":0,
			"componentType":5126,
			"count":821,
			"max":[
				0.08330176770687103,
				0.775703489780426,
				0.07982438802719116
			],
			"min":[
				-0.08420364558696747,
				-0.21326743066310883,
				-0.08762183040380478
			],
			"type":"VEC3"
		},
		{
			"bufferView":1,
			"componentType":5126,
			"count":821,
			"type":"VEC3"
		},
		{
			"bufferView":2,
			"componentType":5126,
			"count":821,
			"type":"VEC2"
		},
		{
			"bufferView":3,
			"componentType":5123,
			"count":3696,
			"type":"SCALAR"
		}
	],
	"bufferViews":[
		{
			"buffer":0,
			"byteLength":9852,
			"byteOffset":0,
			"target":34962
		},
		{
			"buffer":0,
			"byteLength":9852,
			"byteOffset":9852,
			"target":34962
		},
		{
			"buffer":0,
			"byteLength":6568,
			"byteOffset":19704,
			"target":34962
		},
		{
			"buffer":0,
			"byteLength":7392,
			"byteOffset":26272,
			"target":34963
		}
	],
	"samplers":[
		{
			"magFilter":9729,
			"minFilter":9987
		}
	],
	"buffers":[
		{
			"byteLength":33664,
			"uri":"Club.bin"
		}
	]
}
